# xmcd
#
# Track frame offsets: 
#        150
#        14941
#        31938
#        49328
#        67315
#        84118
#        99410
#        118132
#        136261
#        154188
#        172850
#        190789
#
# Disc length: 2764 seconds
#
# Revision: 0
# Processed by: cddbd v1.5.1PL0 Copyright (c) Steve Scherf et al.
# Submitted via: ExactAudioCopy v0.95a4
#
DISCID=9f0aca0c
DTITLE=李雅 - 沉迷回忆
DYEAR=2002
DGENRE=Pop
TTITLE0=沧桑向谁细诉
TTITLE1=何必沉迷回忆
TTITLE2=成功就是你
TTITLE3=真情何时收回
TTITLE4=女性的寄托
TTITLE5=把立场说分明
TTITLE6=尽快回到故乡来
TTITLE7=露雨
TTITLE8=请拿出骨气
TTITLE9=黄昏的恋歌
TTITLE10=总是要忍耐
TTITLE11=港边痴情女
EXTD=
EXTT0=
EXTT1=
EXTT2=
EXTT3=
EXTT4=
EXTT5=
EXTT6=
EXTT7=
EXTT8=
EXTT9=
EXTT10=
EXTT11=
PLAYORDER=
